<svg width="241" height="30" viewBox="0 0 241 30" fill="none" xmlns="http://www.w3.org/2000/svg">
<g filter="url(#filter0_d_2_288)">
<path d="M11.2041 29.2734C10.2373 29.2734 9.39742 29.0586 8.68453 28.6289C7.98141 28.209 7.41012 27.6768 6.97066 27.0322C6.50191 26.3584 6.16012 25.6162 5.94527 24.8057C5.7402 24.0049 5.63766 23.2188 5.63766 22.4473V20.0596C5.63766 18.7607 5.33492 17.8281 4.72945 17.2617C4.12399 16.6953 3.20113 16.4121 1.9609 16.4121V13.4824C3.20113 13.4824 4.12399 13.1992 4.72945 12.6328C5.33492 12.0664 5.63766 11.124 5.63766 9.80566V7.41797C5.63766 6.58789 5.75484 5.7334 5.98922 4.85449C6.22359 3.96582 6.59469 3.19434 7.1025 2.54004C7.52242 1.97363 8.07418 1.50977 8.75777 1.14844C9.44137 0.787109 10.2568 0.606445 11.2041 0.606445L11.7021 2.90625C11.1064 2.88672 10.6474 3.01367 10.3252 3.28711C10.0029 3.55078 9.76852 3.90234 9.62203 4.3418C9.47555 4.78125 9.38766 5.27441 9.35836 5.82129C9.33883 6.3584 9.32906 6.89062 9.32906 7.41797V9.80566C9.32906 10.9678 9.04098 11.998 8.46481 12.8965C7.8984 13.7949 7.01461 14.4785 5.81344 14.9473C7.02438 15.416 7.91305 16.0947 8.47945 16.9834C9.04586 17.8721 9.32906 18.8975 9.32906 20.0596V22.4473C9.32906 22.9746 9.35836 23.5068 9.41695 24.0439C9.48531 24.5908 9.60738 25.084 9.78316 25.5234C9.95895 25.9629 10.1982 26.3145 10.5009 26.5781C10.8134 26.8516 11.2138 26.9785 11.7021 26.959L11.2041 29.2734ZM31.1653 18.4336C31.1653 18.0527 31.0969 17.6963 30.9602 17.3643C30.8332 17.0322 30.6135 16.7197 30.301 16.4268C29.9788 16.1436 29.5588 15.8848 29.0413 15.6504C28.5334 15.4062 27.8987 15.1816 27.137 14.9766C25.9553 14.6543 24.9153 14.2637 24.0168 13.8047C23.1282 13.3457 22.4006 12.8428 21.8342 12.2959C21.2678 11.749 20.8381 11.1436 20.5452 10.4795C20.262 9.81543 20.1204 9.09277 20.1204 8.31152C20.1204 7.41309 20.3108 6.59766 20.6916 5.86523C21.0725 5.13281 21.5998 4.50781 22.2737 3.99023C22.9475 3.47266 23.7434 3.07715 24.6614 2.80371C25.5793 2.52051 26.5754 2.37891 27.6496 2.37891C28.7629 2.37891 29.7786 2.54004 30.6965 2.8623C31.6243 3.18457 32.4202 3.63379 33.0842 4.20996C33.7483 4.7959 34.2659 5.48926 34.637 6.29004C35.008 7.09082 35.1936 7.96973 35.1936 8.92676H31.1799C31.1604 8.44824 31.0725 8.00879 30.9163 7.6084C30.7698 7.20801 30.55 6.86133 30.2571 6.56836C29.9543 6.28516 29.5784 6.06543 29.1291 5.90918C28.6897 5.74316 28.1721 5.66016 27.5764 5.66016C27.0295 5.66016 26.5413 5.72852 26.1116 5.86523C25.6916 5.99219 25.3352 6.17285 25.0422 6.40723C24.7493 6.65137 24.5246 6.93945 24.3684 7.27148C24.2219 7.59375 24.1487 7.94531 24.1487 8.32617C24.1487 8.72656 24.2463 9.08789 24.4416 9.41016C24.6467 9.73242 24.9397 10.0205 25.3205 10.2744C25.7014 10.5381 26.1604 10.7773 26.6975 10.9922C27.2444 11.207 27.8596 11.4072 28.5432 11.5928C29.2756 11.7979 29.9739 12.0469 30.6379 12.3398C31.302 12.6328 31.9123 12.9697 32.469 13.3506C33.3088 13.9756 33.9778 14.7031 34.4758 15.5332C34.9739 16.3633 35.2229 17.3203 35.2229 18.4043C35.2229 19.3418 35.0325 20.1768 34.6516 20.9092C34.2805 21.6318 33.7629 22.2422 33.0989 22.7402C32.4348 23.248 31.6438 23.6338 30.7258 23.8975C29.8079 24.1514 28.8069 24.2783 27.7229 24.2783C26.6584 24.2783 25.6038 24.1221 24.5588 23.8096C23.5237 23.4873 22.6204 23.0186 21.8489 22.4033C21.1164 21.7979 20.5354 21.085 20.1057 20.2646C19.6858 19.4443 19.4758 18.4824 19.4758 17.3789H23.5188C23.5383 18.0234 23.6506 18.5752 23.8557 19.0342C24.0608 19.4932 24.3489 19.8691 24.72 20.1621C25.0813 20.4551 25.5159 20.6699 26.0237 20.8066C26.5413 20.9434 27.1077 21.0117 27.7229 21.0117C28.2698 21.0117 28.7532 20.9482 29.1731 20.8213C29.6028 20.6943 29.9641 20.5186 30.2571 20.2939C30.55 20.0693 30.7746 19.8008 30.9309 19.4883C31.0871 19.166 31.1653 18.8145 31.1653 18.4336ZM54.9058 24H50.8335V14.7568H44.7984V24H40.7114V2.67188H44.7984V11.417H50.8335V2.67188H54.9058V24ZM72.0545 19.5469H65.6531L64.3934 24H60.0574L67.0447 2.67188H70.7801L77.6355 24H73.2996L72.0545 19.5469ZM66.6639 16.0459H71.0877L68.9051 8.19434L66.6639 16.0459ZM96.3663 24H92.2647L86.3321 10.2451V24H82.1866V2.67188H86.3321L92.2208 16.3682L92.2354 2.67188H96.3663V24ZM118.715 6.02637H112.138V24H108.007V6.02637H101.518V2.67188H118.715V6.02637ZM137.856 24H133.784V14.7568H127.749V24H123.662V2.67188H127.749V11.417H133.784V2.67188H137.856V24ZM158.125 27.1787H144.766V24H158.125V27.1787ZM172.49 16.0312H169.37V24H165.254V2.67188H172.403C173.584 2.67188 174.654 2.81348 175.611 3.09668C176.568 3.37012 177.388 3.77539 178.071 4.3125C178.745 4.84961 179.263 5.51855 179.624 6.31934C179.995 7.12012 180.181 8.04785 180.181 9.10254C180.181 9.86426 180.088 10.5527 179.903 11.168C179.727 11.7734 179.473 12.3154 179.141 12.7939C178.799 13.2822 178.389 13.707 177.91 14.0684C177.442 14.4297 176.914 14.7422 176.328 15.0059L180.913 23.8096V24H176.504L172.49 16.0312ZM169.37 12.6914H172.417C173.052 12.6914 173.609 12.6035 174.087 12.4277C174.575 12.2422 174.971 11.9785 175.274 11.6367C175.528 11.3633 175.718 11.0361 175.845 10.6553C175.982 10.2744 176.05 9.84961 176.05 9.38086C176.05 8.81445 175.962 8.31641 175.786 7.88672C175.62 7.44727 175.366 7.08594 175.025 6.80273C174.722 6.54883 174.351 6.35352 173.911 6.2168C173.472 6.08008 172.969 6.01172 172.403 6.01172H169.37V12.6914ZM196.48 19.5469H190.079L188.819 24H184.483L191.47 2.67188H195.206L202.061 24H197.725L196.48 19.5469ZM191.089 16.0459H195.513L193.331 8.19434L191.089 16.0459ZM216.793 2.67188H220.909L220.924 17.4521C220.914 18.4678 220.719 19.3955 220.338 20.2354C219.967 21.0654 219.454 21.7832 218.8 22.3887C218.145 22.9941 217.374 23.4629 216.485 23.7949C215.606 24.127 214.659 24.293 213.643 24.293C212.569 24.293 211.593 24.1562 210.714 23.8828C209.835 23.6094 209.083 23.1992 208.458 22.6523C207.823 22.1152 207.33 21.4365 206.978 20.6162C206.627 19.7959 206.446 18.834 206.436 17.7305H210.567C210.567 18.2383 210.616 18.6826 210.714 19.0635C210.811 19.4443 210.958 19.7666 211.153 20.0303C211.407 20.3525 211.739 20.5918 212.149 20.748C212.559 20.9043 213.057 20.9824 213.643 20.9824C214.112 20.9824 214.542 20.8945 214.932 20.7188C215.323 20.5332 215.655 20.2842 215.928 19.9717C216.202 19.6592 216.412 19.2881 216.558 18.8584C216.715 18.4189 216.793 17.9502 216.793 17.4521V2.67188ZM230.411 26.959C230.89 26.9785 231.28 26.8516 231.583 26.5781C231.896 26.3145 232.14 25.9629 232.315 25.5234C232.491 25.084 232.613 24.5908 232.682 24.0439C232.75 23.5068 232.784 22.9746 232.784 22.4473V20.0596C232.784 19.4932 232.848 18.9561 232.975 18.4482C233.111 17.9404 233.316 17.4668 233.59 17.0273C233.863 16.5879 234.205 16.1973 234.615 15.8555C235.035 15.5039 235.533 15.2061 236.109 14.9619C235.641 14.7666 235.226 14.5322 234.864 14.2588C234.503 13.9854 234.19 13.6826 233.927 13.3506C233.536 12.8623 233.248 12.3203 233.063 11.7246C232.877 11.1191 232.784 10.4795 232.784 9.80566V7.41797C232.784 6.89062 232.77 6.3584 232.74 5.82129C232.721 5.27441 232.638 4.78125 232.491 4.3418C232.345 3.90234 232.11 3.55078 231.788 3.28711C231.466 3.01367 231.007 2.88672 230.411 2.90625L230.909 0.606445C231.954 0.606445 232.833 0.821289 233.546 1.25098C234.259 1.6709 234.84 2.2373 235.289 2.9502C235.719 3.59473 236.022 4.31738 236.197 5.11816C236.383 5.90918 236.476 6.67578 236.476 7.41797V9.80566C236.476 10.3525 236.524 10.8359 236.622 11.2559C236.73 11.6758 236.891 12.0322 237.105 12.3252C237.389 12.7256 237.784 13.0186 238.292 13.2041C238.81 13.3896 239.43 13.4824 240.152 13.4824V16.4121C239.342 16.4121 238.668 16.5293 238.131 16.7637C237.594 16.9883 237.189 17.3545 236.915 17.8623C236.769 18.1357 236.656 18.458 236.578 18.8291C236.51 19.1904 236.476 19.6006 236.476 20.0596V22.4473C236.476 23.209 236.363 24 236.139 24.8203C235.914 25.6406 235.582 26.373 235.143 27.0176C234.703 27.6914 234.127 28.2334 233.414 28.6436C232.711 29.0635 231.876 29.2734 230.909 29.2734L230.411 26.959Z" fill="#F0F0F0"/>
</g>
<defs>
<filter id="filter0_d_2_288" x="0.960907" y="0.606445" width="239.191" height="28.667" filterUnits="userSpaceOnUse" color-interpolation-filters="sRGB">
<feFlood flood-opacity="0" result="BackgroundImageFix"/>
<feColorMatrix in="SourceAlpha" type="matrix" values="0 0 0 0 0 0 0 0 0 0 0 0 0 0 0 0 0 0 127 0" result="hardAlpha"/>
<feOffset dx="-1"/>
<feComposite in2="hardAlpha" operator="out"/>
<feColorMatrix type="matrix" values="0 0 0 0 0.94902 0 0 0 0 0.419608 0 0 0 0 0.219608 0 0 0 1 0"/>
<feBlend mode="normal" in2="BackgroundImageFix" result="effect1_dropShadow_2_288"/>
<feBlend mode="normal" in="SourceGraphic" in2="effect1_dropShadow_2_288" result="shape"/>
</filter>
</defs>
</svg>
